<?xml version="1.0" standalone="no"?>
<!DOCTYPE svg PUBLIC "-//W3C//DTD SVG 20010904//EN"
 "http://www.w3.org/TR/2001/REC-SVG-20010904/DTD/svg10.dtd">
<svg version="1.0" xmlns="http://www.w3.org/2000/svg"
 width="304.000000pt" height="304.000000pt" viewBox="0 0 304.000000 304.000000"
 preserveAspectRatio="xMidYMid meet">
<metadata>
Created by potrace 1.11, written by Peter Selinger 2001-2013
</metadata>
<g transform="translate(0.000000,304.000000) scale(0.100000,-0.100000)"
fill="#000000" stroke="none">
<path d="M1650 2965 l0 -65 -68 0 -69 0 -7 -432 c-4 -238 -4 -448 0 -465 l7
-33 -77 0 -76 0 0 -75 0 -75 -100 0 -100 0 0 -70 0 -70 -105 0 -105 0 0 -80 0
-80 -65 0 -65 0 0 -65 0 -65 -155 0 -155 0 0 80 0 80 -70 0 -70 0 0 70 0 70
-70 0 -70 0 0 140 0 140 -64 0 -64 0 -7 -275 c-4 -151 -4 -340 0 -420 l7 -145
64 0 64 0 0 -55 0 -55 70 0 70 0 0 -75 0 -75 155 0 155 0 0 -150 0 -150 55 0
55 0 0 -285 0 -285 155 0 155 0 0 70 0 70 -90 0 -90 0 0 70 0 70 80 0 80 0 0
65 0 65 65 0 65 0 0 80 0 80 80 0 80 0 0 -80 0 -80 70 0 70 0 0 -205 0 -205
155 0 155 0 0 70 0 70 -100 0 -100 0 0 285 0 285 70 0 70 0 0 80 0 80 80 0 80
0 0 95 0 95 75 0 75 0 0 245 0 245 70 0 70 0 0 -65 0 -65 65 0 65 0 0 130 0
130 -135 0 -135 0 0 160 0 160 270 0 270 0 0 50 0 50 -200 0 -200 0 0 85 0 85
363 2 362 3 3 313 2 312 -85 0 -85 0 0 65 0 65 -560 0 -560 0 0 -65z m270
-160 l0 -76 -72 3 -73 3 -3 73 -3 72 76 0 75 0 0 -75z"/>
</g>
</svg>
